<?xml version="1.0" standalone="no"?>
<!DOCTYPE svg PUBLIC "-//W3C//DTD SVG 20010904//EN"
 "http://www.w3.org/TR/2001/REC-SVG-20010904/DTD/svg10.dtd">
<svg version="1.0" xmlns="http://www.w3.org/2000/svg"
 width="554.000000pt" height="554.000000pt" viewBox="0 0 554.000000 554.000000"
 preserveAspectRatio="xMidYMid meet">

<g transform="translate(0.000000,554.000000) scale(0.100000,-0.100000)"
fill="#000000" stroke="none">
<path d="M1036 4964 c-155 -38 -285 -143 -359 -289 -49 -99 -57 -145 -57 -344
-1 -423 -43 -739 -132 -981 -52 -142 -104 -225 -195 -311 -69 -67 -142 -106
-227 -123 l-61 -13 -3 -139 -3 -139 62 -12 c97 -18 165 -58 249 -142 209 -211
309 -622 310 -1272 0 -208 7 -247 68 -363 62 -119 172 -214 300 -258 l67 -23
1725 0 1725 0 67 23 c169 58 299 201 354 387 14 48 17 92 16 220 -7 618 95
1058 295 1275 74 80 142 123 237 147 l66 18 0 141 0 142 -43 6 c-117 18 -258
125 -343 262 -41 66 -86 173 -120 284 -60 200 -96 542 -92 885 1 127 -2 172
-16 220 -54 185 -183 324 -357 387 l-64 23 -1705 2 c-1446 1 -1714 -1 -1764
-13z m2102 -1040 c270 -55 450 -213 498 -439 41 -187 -10 -363 -142 -497 -68
-69 -117 -99 -208 -129 -36 -12 -65 -23 -63 -25 2 -2 37 -10 78 -19 110 -22
228 -84 303 -158 177 -176 216 -461 96 -704 -90 -183 -273 -304 -526 -348 -70
-12 -188 -15 -616 -15 l-529 0 -24 26 -25 27 0 1118 0 1117 26 31 26 31 514 0
c430 0 528 -3 592 -16z"/>
<path d="M2350 3289 l0 -351 293 4 c269 5 298 7 362 28 123 39 191 91 236 179
27 53 38 191 20 258 -18 66 -70 134 -129 169 -95 57 -147 64 -482 64 l-300 0
0 -351z"/>
<path d="M2350 2276 l0 -386 323 0 c351 0 409 7 513 56 146 69 217 214 193
392 -21 149 -117 246 -295 297 -49 15 -118 18 -396 22 l-338 5 0 -386z"/>
</g>
</svg>
