<?xml version="1.0" standalone="no"?>
<!DOCTYPE svg PUBLIC "-//W3C//DTD SVG 20010904//EN"
 "http://www.w3.org/TR/2001/REC-SVG-20010904/DTD/svg10.dtd">
<svg version="1.0" xmlns="http://www.w3.org/2000/svg"
 width="500.000000pt" height="500.000000pt" viewBox="0 0 500.000000 500.000000"
 preserveAspectRatio="xMidYMid meet">

<g transform="translate(0.000000,500.000000) scale(0.100000,-0.100000)"
fill="#000000" stroke="none">
<path d="M343 4954 c-31 -31 -34 36 37 -759 27 -302 70 -782 95 -1065 25 -283
75 -841 110 -1240 36 -399 77 -858 91 -1020 27 -304 36 -346 77 -373 24 -15
1714 -487 1746 -487 16 0 367 96 1591 435 184 51 204 66 214 161 8 73 39 423
286 3199 49 556 94 1026 100 1046 15 54 13 62 -21 97 l-31 32 -2135 0 -2134 0
-26 -26z m3523 -960 c17 -24 16 -38 -9 -261 -14 -130 -29 -239 -34 -244 -4 -4
-262 -112 -572 -238 -310 -127 -570 -236 -577 -242 -17 -14 -18 -48 -1 -54 6
-3 226 -6 487 -7 470 -3 475 -3 510 -25 48 -29 80 -89 80 -146 0 -25 -31 -338
-70 -697 -73 -687 -76 -701 -130 -740 -15 -11 -247 -97 -516 -192 -354 -124
-501 -172 -534 -172 -32 0 -177 46 -515 163 -259 90 -488 173 -509 185 -71 38
-76 56 -113 385 -42 380 -42 374 1 417 l34 34 164 0 c109 0 171 -4 187 -13 46
-23 58 -62 76 -242 9 -93 20 -180 25 -191 7 -17 44 -34 172 -77 90 -30 234
-80 320 -111 l156 -55 327 114 c180 62 328 115 330 117 5 6 82 743 78 751 -2
4 -428 7 -946 7 -1033 0 -970 -4 -1001 58 -7 15 -21 107 -31 205 -17 163 -17
180 -3 210 9 20 30 41 50 50 30 14 892 370 1098 454 94 38 116 54 107 77 -6
14 -72 16 -641 16 -378 0 -645 4 -660 10 -14 5 -30 18 -35 29 -13 24 -53 389
-44 405 3 6 13 19 21 29 14 16 91 17 1358 17 l1344 0 16 -26z"/>
</g>
</svg>
