<?xml version="1.0" standalone="no"?>
<!DOCTYPE svg PUBLIC "-//W3C//DTD SVG 20010904//EN"
 "http://www.w3.org/TR/2001/REC-SVG-20010904/DTD/svg10.dtd">
<svg version="1.0" xmlns="http://www.w3.org/2000/svg"
 width="554.000000pt" height="554.000000pt" viewBox="0 0 554.000000 554.000000"
 preserveAspectRatio="xMidYMid meet">

<g transform="translate(0.000000,554.000000) scale(0.100000,-0.100000)"
fill="#000000" stroke="none">
<path d="M2547 5459 c-637 -56 -1233 -334 -1682 -785 -830 -832 -1029 -2088
-499 -3135 136 -268 281 -467 504 -690 327 -327 698 -549 1141 -683 419 -126
900 -144 1338 -51 814 175 1514 728 1871 1478 280 589 340 1234 175 1865 -119
454 -356 865 -693 1205 -456 461 -1055 742 -1695 796 -142 12 -326 12 -460 0z
m1662 -1350 c28 -6 53 -15 56 -19 6 -10 -1472 -1740 -1486 -1740 -4 0 -341
390 -750 866 -513 598 -738 869 -731 876 5 5 25 14 44 18 53 13 2808 12 2867
-1z m-2622 -889 c268 -313 489 -573 490 -577 5 -13 -976 -988 -984 -979 -12
11 -15 2126 -4 2126 5 0 229 -256 498 -570z m2891 -489 c-2 -583 -7 -1063 -11
-1067 -7 -7 -987 963 -987 976 0 11 981 1150 991 1150 6 0 8 -373 7 -1059z
m-1937 -625 c189 -222 237 -272 248 -263 8 7 115 130 238 274 123 145 227 263
231 263 9 0 962 -953 962 -962 0 -5 -648 -8 -1440 -8 -792 0 -1440 3 -1440 7
0 10 952 963 961 963 4 0 112 -123 240 -274z"/>
</g>
</svg>
