<?xml version="1.0" standalone="no"?>
<!DOCTYPE svg PUBLIC "-//W3C//DTD SVG 20010904//EN"
 "http://www.w3.org/TR/2001/REC-SVG-20010904/DTD/svg10.dtd">
<svg version="1.0" xmlns="http://www.w3.org/2000/svg"
 width="512.000000pt" height="512.000000pt" viewBox="0 0 512.000000 512.000000"
 preserveAspectRatio="xMidYMid meet">

<g transform="translate(0.000000,512.000000) scale(0.100000,-0.100000)"
fill="#000000" stroke="none">
<path d="M1409 5075 c-14 -8 -33 -25 -42 -39 -12 -17 -66 -342 -177 -1058 -87
-568 -200 -1292 -249 -1608 -49 -316 -88 -576 -87 -577 1 -1 100 174 221 390
120 215 400 717 621 1114 l404 721 -226 424 c-124 232 -249 465 -276 516 -67
124 -118 156 -189 117z"/>
<path d="M2499 4353 c-19 -11 -94 -137 -244 -407 -120 -215 -345 -618 -500
-896 -156 -278 -437 -782 -625 -1120 -188 -338 -345 -619 -348 -625 -6 -10
1839 1844 2118 2128 l145 148 -51 97 c-28 53 -115 221 -194 372 -79 151 -155
285 -168 297 -30 28 -94 31 -133 6z"/>
<path d="M3754 4037 c-20 -12 -3017 -3023 -3021 -3036 -1 -3 266 -157 594
-341 328 -184 703 -395 832 -468 130 -73 262 -142 293 -153 70 -23 137 -24
203 -1 28 10 412 220 855 467 443 247 822 458 842 469 21 12 38 28 38 36 0 8
-21 141 -45 295 -25 154 -131 813 -235 1465 -105 652 -195 1198 -202 1214 -22
54 -103 83 -154 53z"/>
</g>
</svg>
