<?xml version="1.0" standalone="no"?>
<!DOCTYPE svg PUBLIC "-//W3C//DTD SVG 20010904//EN"
 "http://www.w3.org/TR/2001/REC-SVG-20010904/DTD/svg10.dtd">
<svg version="1.0" xmlns="http://www.w3.org/2000/svg"
 width="2000.000000pt" height="2000.000000pt" viewBox="0 0 2000.000000 2000.000000"
 preserveAspectRatio="xMidYMid meet">

<g transform="translate(0.000000,2000.000000) scale(0.100000,-0.100000)"
fill="#000000" stroke="none">
<path d="M9775 19735 c-191 -31 -386 -113 -534 -226 -42 -32 -492 -474 -1001
-983 l-925 -926 1121 -1121 1121 -1121 80 26 c422 133 918 48 1283 -220 315
-231 506 -527 582 -907 19 -95 23 -143 22 -317 0 -184 -3 -217 -27 -325 -14
-66 -29 -129 -32 -140 -5 -16 197 -222 1067 -1092 l1073 -1072 70 19 c139 39
276 53 475 47 258 -8 404 -41 605 -137 375 -181 676 -533 790 -925 45 -155 57
-268 52 -475 -6 -204 -21 -297 -77 -455 -72 -201 -175 -361 -340 -525 -165
-165 -330 -275 -515 -346 -421 -159 -917 -128 -1303 83 -99 53 -258 171 -324
240 -136 141 -275 375 -343 577 -59 178 -78 318 -72 526 6 192 19 268 72 425
l34 100 -1007 1008 c-554 554 -1010 1007 -1014 1007 -5 0 -8 -1195 -8 -2655
l0 -2655 78 -39 c118 -60 217 -134 327 -246 207 -210 330 -434 395 -720 30
-132 38 -403 16 -553 -49 -330 -184 -592 -431 -837 -224 -222 -481 -356 -790
-412 -126 -23 -397 -22 -530 1 -391 70 -730 297 -962 646 -247 369 -311 878
-167 1309 124 372 402 685 760 857 l94 45 -2 2680 -3 2680 -84 34 c-152 63
-242 126 -401 285 -203 202 -302 353 -375 573 -108 326 -107 667 3 976 l30 85
-876 885 c-483 487 -976 986 -1097 1109 l-220 223 -2981 -2983 c-2638 -2640
-2988 -2993 -3039 -3071 -102 -156 -158 -311 -190 -524 -19 -129 -19 -197 0
-326 32 -215 85 -362 189 -523 52 -80 478 -509 4424 -4455 3598 -3598 4381
-4376 4446 -4419 156 -104 317 -164 519 -194 136 -20 218 -20 354 0 276 41
467 132 683 327 52 47 2004 1995 4336 4329 3111 3111 4258 4266 4304 4328 94
128 173 295 205 434 8 34 21 118 30 189 14 116 14 138 0 249 -9 67 -23 151
-31 186 -33 142 -110 304 -205 432 -86 116 -8659 8690 -8774 8776 -144 106
-322 185 -497 219 -117 23 -351 28 -463 10z"/>
</g>
</svg>
