<?xml version="1.0" standalone="no"?>
<!DOCTYPE svg PUBLIC "-//W3C//DTD SVG 20010904//EN"
 "http://www.w3.org/TR/2001/REC-SVG-20010904/DTD/svg10.dtd">
<svg version="1.0" xmlns="http://www.w3.org/2000/svg"
 width="554.000000pt" height="554.000000pt" viewBox="0 0 554.000000 554.000000"
 preserveAspectRatio="xMidYMid meet">

<g transform="translate(0.000000,554.000000) scale(0.100000,-0.100000)"
fill="#000000" stroke="none">
<path d="M2500 5414 c-103 -12 -255 -38 -330 -55 -590 -136 -1104 -450 -1487
-909 -144 -173 -249 -334 -353 -545 -168 -338 -251 -650 -281 -1051 -27 -365
48 -812 198 -1179 233 -573 659 -1052 1209 -1359 211 -118 458 -212 525 -201
50 9 96 47 107 88 5 18 7 148 4 291 l-5 258 -36 -6 c-114 -19 -278 -26 -371
-16 -175 19 -284 65 -383 159 -49 47 -69 77 -119 180 -101 211 -185 324 -299
402 -69 47 -111 95 -107 123 8 56 172 59 285 7 82 -39 185 -137 259 -247 173
-257 395 -341 684 -258 97 28 104 35 119 108 16 79 59 173 112 243 l39 52 -38
6 c-20 3 -95 16 -167 30 -664 124 -993 514 -1022 1215 -8 206 10 335 73 502
30 80 106 208 162 276 l41 49 -19 60 c-55 176 -40 450 34 628 l16 38 93 -5
c149 -8 342 -85 567 -224 l88 -54 78 20 c219 54 427 75 679 67 200 -6 334 -23
503 -62 l102 -25 75 49 c230 150 512 253 642 234 31 -5 34 -9 57 -82 40 -129
50 -191 51 -326 0 -104 -5 -149 -24 -226 l-23 -96 45 -56 c103 -126 172 -275
207 -447 19 -93 21 -127 17 -295 -10 -407 -105 -676 -315 -897 -192 -201 -447
-310 -874 -373 l-38 -6 39 -52 c22 -29 53 -81 70 -117 57 -122 61 -165 61
-662 0 -390 2 -454 16 -483 41 -86 122 -92 299 -21 913 365 1556 1175 1699
2141 29 197 38 385 26 543 -31 413 -111 714 -280 1057 -104 211 -208 372 -353
545 -418 501 -991 828 -1647 941 -103 18 -173 22 -400 24 -151 2 -291 1 -310
-1z"/>
</g>
</svg>
