<?xml version="1.0" standalone="no"?>
<!DOCTYPE svg PUBLIC "-//W3C//DTD SVG 20010904//EN"
 "http://www.w3.org/TR/2001/REC-SVG-20010904/DTD/svg10.dtd">
<svg version="1.0" xmlns="http://www.w3.org/2000/svg"
 width="500.000000pt" height="500.000000pt" viewBox="0 0 500.000000 500.000000"
 preserveAspectRatio="xMidYMid meet">

<g transform="translate(0.000000,500.000000) scale(0.100000,-0.100000)"
fill="#000000" stroke="none">
<path d="M333 4954 c-19 -29 -24 35 213 -2614 35 -393 84 -944 109 -1225 24
-280 47 -524 50 -542 5 -26 62 -93 80 -93 4 0 1034 -285 1482 -411 117 -32
223 -59 234 -59 21 0 380 98 1332 363 350 98 411 118 437 142 16 15 31 40 34
54 3 14 17 152 31 306 13 154 68 762 120 1350 153 1711 235 2617 241 2660 5
32 1 46 -16 68 l-21 27 -2154 0 -2155 0 -17 -26z m3511 -905 c21 -16 26 -29
26 -62 0 -30 -30 -383 -40 -464 0 -2 -457 -3 -1015 -3 -754 0 -1021 -3 -1040
-12 -42 -19 -43 -39 -14 -357 11 -121 15 -137 38 -163 l26 -29 951 -2 c920 -2
953 -3 973 -21 15 -14 21 -31 21 -60 0 -23 -27 -342 -60 -711 -33 -369 -63
-708 -66 -755 -9 -112 -15 -126 -66 -150 -42 -19 -1047 -300 -1074 -300 -8 0
-78 18 -157 39 -683 190 -904 253 -924 266 -44 29 -50 59 -84 442 l-33 372 24
26 23 25 225 0 224 0 27 -28 c27 -26 29 -34 40 -177 14 -166 21 -195 60 -228
37 -30 558 -172 598 -163 141 34 523 141 540 152 49 31 55 53 79 322 30 326
30 353 3 378 -20 18 -52 19 -918 21 -636 2 -902 6 -917 14 -12 6 -27 22 -33
36 -6 13 -40 353 -76 756 -35 403 -66 746 -68 762 -5 38 9 70 37 83 14 7 451
11 1332 11 l1311 1 27 -21z"/>
</g>
</svg>
