<?xml version="1.0" standalone="no"?>
<!DOCTYPE svg PUBLIC "-//W3C//DTD SVG 20010904//EN"
 "http://www.w3.org/TR/2001/REC-SVG-20010904/DTD/svg10.dtd">
<svg version="1.0" xmlns="http://www.w3.org/2000/svg"
 width="133.000000pt" height="133.000000pt" viewBox="0 0 133.000000 133.000000"
 preserveAspectRatio="xMidYMid meet">

<g transform="translate(0.000000,133.000000) scale(0.100000,-0.100000)"
fill="#000000" stroke="none">
<path d="M10 665 l0 -655 655 0 655 0 0 655 0 655 -655 0 -655 0 0 -655z
m1085 43 c29 -15 75 -60 75 -74 0 -7 -19 -23 -41 -36 l-41 -25 -24 24 c-26 26
-70 30 -98 10 -12 -9 -17 -23 -14 -47 3 -33 8 -38 98 -83 104 -53 125 -68 147
-111 21 -41 13 -133 -15 -173 -49 -68 -185 -94 -280 -53 -46 20 -112 78 -112
98 0 4 20 18 45 31 l46 24 27 -26 c41 -39 82 -51 131 -37 30 8 42 17 47 35 12
47 1 59 -94 106 -51 25 -102 55 -114 65 -46 42 -63 145 -33 204 38 74 167 109
250 68z m-375 -225 c0 -210 -3 -243 -19 -279 -48 -106 -213 -125 -303 -34 -21
21 -38 42 -38 46 0 5 20 21 45 36 l44 27 30 -29 c35 -35 72 -39 101 -10 19 19
20 33 20 250 l0 230 60 0 60 0 0 -237z"/>
</g>
</svg>
