<?xml version="1.0" standalone="no"?>
<!DOCTYPE svg PUBLIC "-//W3C//DTD SVG 20010904//EN"
 "http://www.w3.org/TR/2001/REC-SVG-20010904/DTD/svg10.dtd">
<svg version="1.0" xmlns="http://www.w3.org/2000/svg"
 width="100.000000pt" height="100.000000pt" viewBox="0 0 100.000000 100.000000"
 preserveAspectRatio="xMidYMid meet">

<g transform="translate(0.000000,100.000000) scale(0.100000,-0.100000)"
fill="#000000" stroke="none">
<path d="M550 888 c-33 -74 -21 -145 37 -209 53 -58 106 -83 179 -84 50 0 68
5 102 27 23 15 46 37 52 48 l11 20 -33 -20 c-71 -43 -210 -13 -270 58 -38 46
-62 114 -55 162 3 22 3 40 1 40 -3 0 -14 -19 -24 -42z"/>
<path d="M341 828 c-54 -94 -54 -187 0 -289 37 -69 96 -127 171 -166 48 -25
63 -28 153 -28 89 0 106 3 157 28 57 28 95 65 132 129 l20 33 -37 -32 c-71
-62 -113 -78 -207 -78 -105 1 -174 29 -255 106 -91 86 -133 207 -106 303 6 22
9 42 6 44 -2 2 -17 -20 -34 -50z"/>
<path d="M101 754 c-92 -129 -95 -274 -8 -438 46 -87 132 -168 232 -217 78
-39 92 -42 183 -47 110 -5 180 10 265 56 52 28 128 105 154 156 l16 31 -39
-34 c-233 -205 -654 -65 -764 254 -25 72 -27 199 -5 252 23 55 11 50 -34 -13z"/>
</g>
</svg>
