<?xml version="1.0" standalone="no"?>
<!DOCTYPE svg PUBLIC "-//W3C//DTD SVG 20010904//EN"
 "http://www.w3.org/TR/2001/REC-SVG-20010904/DTD/svg10.dtd">
<svg version="1.0" xmlns="http://www.w3.org/2000/svg"
 width="554.000000pt" height="554.000000pt" viewBox="0 0 554.000000 554.000000"
 preserveAspectRatio="xMidYMid meet">

<g transform="translate(0.000000,554.000000) scale(0.100000,-0.100000)"
fill="#000000" stroke="none">
<path d="M420 5461 c-36 -10 -83 -27 -105 -38 -94 -49 -188 -160 -229 -270
l-21 -58 -3 -2275 c-2 -1569 1 -2297 8 -2345 16 -105 58 -185 139 -266 81 -81
161 -123 266 -139 48 -7 776 -10 2345 -8 2260 3 2275 3 2330 23 115 43 226
138 275 235 12 25 32 83 44 130 l21 85 -3 2255 c-2 1733 -6 2267 -15 2305 -47
190 -201 342 -381 375 -35 6 -854 10 -2330 9 -2146 0 -2280 -1 -2341 -18z
m1029 -597 c147 -42 295 -164 359 -296 136 -280 30 -622 -236 -761 -100 -53
-172 -70 -282 -70 -166 0 -291 52 -406 167 -121 122 -170 254 -161 436 6 123
27 194 89 288 136 210 394 305 637 236z m2656 -1343 c85 -18 219 -63 278 -92
309 -155 475 -465 517 -964 5 -66 10 -481 10 -924 l0 -803 -38 -38 c-50 -50
-70 -52 -462 -48 -349 3 -347 3 -389 72 -19 30 -20 58 -24 811 -4 874 -2 850
-77 1002 -74 149 -174 211 -357 220 -118 6 -206 -14 -286 -68 -85 -56 -166
-185 -209 -335 -22 -78 -22 -87 -28 -841 -5 -749 -5 -762 -26 -789 -11 -15
-33 -37 -48 -48 -26 -20 -40 -21 -369 -21 -376 0 -389 2 -430 59 l-22 31 0
1326 c0 1456 -4 1359 61 1399 30 19 51 20 379 20 396 0 399 -1 435 -74 16 -35
20 -62 20 -155 l0 -113 46 62 c62 81 169 170 260 215 94 46 264 94 374 105 95
10 323 4 385 -9z m-2437 -51 c18 -11 41 -34 52 -52 20 -32 20 -53 20 -1341 0
-1449 5 -1339 -67 -1394 l-36 -28 -341 0 c-324 0 -343 1 -376 20 -21 12 -44
39 -57 65 l-23 44 0 1295 0 1294 25 42 c43 74 45 75 430 75 322 0 342 -1 373
-20z"/>
</g>
</svg>
