<?xml version="1.0" standalone="no"?>
<!DOCTYPE svg PUBLIC "-//W3C//DTD SVG 20010904//EN"
 "http://www.w3.org/TR/2001/REC-SVG-20010904/DTD/svg10.dtd">
<svg version="1.0" xmlns="http://www.w3.org/2000/svg"
 width="133.000000pt" height="133.000000pt" viewBox="0 0 133.000000 133.000000"
 preserveAspectRatio="xMidYMid meet">

<g transform="translate(0.000000,133.000000) scale(0.100000,-0.100000)"
fill="#000000" stroke="none">
<path d="M470 1124 c-85 -23 -249 -107 -316 -163 -68 -55 -119 -125 -135 -184
-20 -76 22 -140 157 -238 46 -34 84 -63 84 -64 0 -2 -26 -20 -59 -39 -107 -65
-149 -125 -141 -201 9 -93 153 -94 237 -2 52 56 67 103 59 178 -5 57 -5 59 22
73 l28 14 -4 -68 c-8 -144 67 -200 123 -91 21 40 24 42 25 20 0 -14 6 -34 14
-44 12 -16 18 -18 40 -7 19 8 42 44 88 138 34 70 64 121 66 113 2 -8 10 -31
19 -51 l16 -37 -47 -54 c-55 -65 -61 -97 -16 -97 44 0 93 23 119 56 19 24 22
37 17 76 -6 41 -2 53 27 102 l34 56 18 -46 17 -46 -25 -26 c-47 -51 -64 -116
-32 -128 23 -9 80 14 109 45 24 25 28 36 24 70 -4 49 6 54 93 54 128 -1 200
-98 120 -160 -14 -11 -14 -12 5 -13 54 -1 78 92 38 147 -11 15 -40 38 -65 51
-37 19 -55 22 -109 19 -36 -3 -74 -8 -86 -12 -31 -10 -49 39 -40 110 4 33 2
56 -4 60 -16 10 -70 -5 -70 -20 0 -7 -18 -50 -41 -95 -27 -54 -45 -78 -51 -72
-12 12 -15 78 -5 114 6 24 4 28 -17 34 -26 6 -66 -10 -66 -27 0 -15 -109 -261
-121 -273 -13 -14 -11 -2 11 83 20 77 19 91 -6 91 -8 0 -14 9 -14 19 0 10 -8
29 -18 41 -24 30 -59 22 -110 -25 -21 -19 -67 -50 -101 -70 l-63 -35 -38 32
c-20 18 -58 50 -83 71 -62 50 -80 87 -75 148 8 83 86 159 244 238 143 72 300
91 363 43 55 -40 28 -144 -54 -206 -101 -77 -250 -109 -320 -67 -47 27 -48 27
-30 -8 44 -85 254 -77 387 15 84 58 139 175 119 252 -12 42 -38 70 -91 98 -47
24 -195 29 -270 8z m90 -549 c0 -22 -38 -132 -62 -179 -18 -35 -21 -37 -30
-22 -13 24 -5 93 16 138 29 61 76 100 76 63z m416 -129 c-3 -14 -15 -30 -26
-36 -25 -14 -25 -4 1 39 22 37 35 36 25 -3z m-678 -67 c-8 -74 -62 -137 -123
-142 -26 -2 -30 2 -33 27 -2 16 2 41 10 54 13 26 122 112 140 112 7 0 9 -20 6
-51z m490 9 c-8 -12 -21 -24 -29 -26 -8 -3 -3 7 10 22 30 32 39 34 19 4z"/>
</g>
</svg>
