<?xml version="1.0" standalone="no"?>
<!DOCTYPE svg PUBLIC "-//W3C//DTD SVG 20010904//EN"
 "http://www.w3.org/TR/2001/REC-SVG-20010904/DTD/svg10.dtd">
<svg version="1.0" xmlns="http://www.w3.org/2000/svg"
 width="133.000000pt" height="133.000000pt" viewBox="0 0 133.000000 133.000000"
 preserveAspectRatio="xMidYMid meet">

<g transform="translate(0.000000,133.000000) scale(0.100000,-0.100000)"
fill="#000000" stroke="none">
<path d="M464 1304 c-89 -12 -221 -52 -253 -76 -53 -40 -71 -63 -71 -93 0
-116 332 -206 646 -177 134 13 214 32 294 68 109 50 140 113 83 165 -47 42
-58 49 -133 75 -142 49 -376 65 -566 38z"/>
<path d="M140 866 c0 -92 1 -95 28 -114 49 -34 91 -52 170 -72 279 -69 674
-36 822 70 30 21 30 23 30 116 l0 94 -39 -20 c-60 -30 -196 -67 -296 -79 -240
-29 -529 5 -676 79 l-39 20 0 -94z"/>
<path d="M140 551 l0 -90 35 -26 c73 -56 301 -105 490 -105 189 0 417 49 490
105 l35 26 0 89 0 89 -46 -19 c-158 -68 -437 -97 -669 -69 -108 13 -234 43
-289 70 -22 10 -41 19 -43 19 -2 0 -3 -40 -3 -89z"/>
<path d="M140 246 c0 -87 3 -93 71 -144 62 -47 281 -90 454 -90 173 0 392 43
454 90 68 51 71 57 71 144 l0 82 -60 -25 c-249 -100 -681 -100 -930 0 l-60 25
0 -82z"/>
</g>
</svg>
